<svg width="100" height="100" viewBox="0 0 100 100" fill="none" xmlns="http://www.w3.org/2000/svg">
  <path
    d="M37.6708 23.8974C37.6708 24.457 37.6222 25.0166 37.5492 25.5518L41.1501 28.3742C41.4664 28.6418 41.5637 29.0797 41.3447 29.469L37.9385 35.357C37.7195 35.7219 37.2815 35.8679 36.8922 35.7219L32.6588 34.0188C31.7829 34.7001 30.8096 35.2597 29.7634 35.6976L29.1552 40.1987C29.0822 40.6123 28.7172 40.9286 28.3036 40.9286H21.4911C21.0775 40.9286 20.7125 40.6123 20.6395 40.1987L20.0313 35.6976C18.9607 35.2597 18.0119 34.7001 17.136 34.0188L12.9025 35.7219C12.5132 35.8679 12.0752 35.7219 11.8563 35.357L8.45001 29.469C8.23103 29.0797 8.32836 28.6418 8.64465 28.3742L12.2456 25.5518C12.1726 25.0166 12.1239 24.457 12.1239 23.8974C12.1239 23.3378 12.1726 22.7782 12.2456 22.2429L8.64465 19.4206C8.32836 19.1529 8.23103 18.6907 8.45001 18.3257L11.8563 12.4377C12.0752 12.0485 12.5132 11.9025 12.9025 12.0485L17.136 13.7759C18.0119 13.0947 18.9607 12.5107 20.0313 12.0971L20.6395 7.57166C20.7125 7.18237 21.0775 6.86608 21.4911 6.86608H28.3036C28.7172 6.86608 29.0822 7.18237 29.1552 7.57166L29.7634 12.0971C30.8096 12.5107 31.7829 13.0947 32.6588 13.7759L36.8922 12.0485C37.2815 11.9025 37.7195 12.0485 37.9385 12.4377L41.3447 18.3257C41.5637 18.6907 41.4664 19.1529 41.1501 19.4206L37.5492 22.2429C37.6222 22.7782 37.6708 23.3378 37.6708 23.8974ZM41.9286 2H7.86608C5.16541 2 3 4.16541 3 6.86608V40.9286C3 42.2192 3.51267 43.4569 4.42524 44.3695C5.33781 45.282 6.57551 45.7947 7.86608 45.7947H41.9286C43.2192 45.7947 44.4569 45.282 45.3695 44.3695C46.282 43.4569 46.7947 42.2192 46.7947 40.9286V6.86608C46.7947 4.16541 44.605 2 41.9286 2ZM24.8974 19.0313C22.1967 19.0313 20.0313 21.1967 20.0313 23.8974C20.0313 25.1879 20.544 26.4256 21.4565 27.3382C22.3691 28.2508 23.6068 28.7634 24.8974 28.7634C26.1879 28.7634 27.4256 28.2508 28.3382 27.3382C29.2508 26.4256 29.7634 25.1879 29.7634 23.8974C29.7634 21.1967 27.5737 19.0313 24.8974 19.0313Z"
    fill="currentColor" />
  <path
    d="M81.3141 18.7077C80.898 12.5983 78.4236 6.64224 73.7814 2C69.0953 6.68603 66.5114 12.6421 65.9859 18.7077C68.8107 20.1967 71.3946 22.1237 73.65 24.4667C75.9054 22.1456 78.4893 20.2186 81.3141 18.7077ZM73.65 31.4519C68.942 24.2696 60.9057 19.5179 51.7526 19.5179C51.7526 41.4152 72.161 45.5538 73.65 45.7947C75.139 45.5319 95.5473 41.4152 95.5473 19.5179C86.3942 19.5179 78.3579 24.2696 73.65 31.4519Z"
    fill="currentColor" />
  <path
    d="M91.9666 49.9263H55.3333C52.455 49.9263 50.1 52.2813 50.1 55.1596V91.7929C50.1 94.6712 52.455 97.0262 55.3333 97.0262H91.9666C94.845 97.0262 97.2 94.6712 97.2 91.7929V55.1596C97.2 52.2813 94.845 49.9263 91.9666 49.9263ZM83.855 60.1313C83.855 60.1313 82.0233 59.3463 81.2383 59.3463C79.6683 59.0846 78.6216 59.6079 78.0983 62.2246L73.65 86.0362C73.1266 88.1296 72.3416 89.6996 71.0333 90.7463C69.9866 91.5312 68.94 91.7929 67.6316 91.7929C65.5383 91.7929 62.3983 90.4846 62.3983 90.4846L63.7066 86.8213C63.7066 86.8213 65.8 87.6062 66.3233 87.6062C67.1083 87.8679 67.6316 87.6062 68.155 87.3446C68.6783 87.0829 68.94 86.2979 69.2016 85.5129L73.3883 61.4396C73.65 59.3463 74.6966 57.7763 76.005 56.4679C77.575 55.4213 79.4066 55.1596 81.5 55.4213C83.3316 55.6829 85.425 56.7296 85.425 56.7296L83.855 60.1313Z"
    fill="currentColor" />
  <path
    d="M24.8974 70.9142C25.5769 70.9142 26.2285 71.1841 26.709 71.6646C27.1895 72.1451 27.4594 72.7968 27.4594 73.4763C27.4594 74.1558 27.1895 74.8075 26.709 75.2879C26.2285 75.7684 25.5769 76.0383 24.8974 76.0383C24.2179 76.0383 23.5662 75.7684 23.0857 75.2879C22.6052 74.8075 22.3353 74.1558 22.3353 73.4763C22.3353 72.7968 22.6052 72.1451 23.0857 71.6646C23.5662 71.1841 24.2179 70.9142 24.8974 70.9142ZM4.96442 53.5433C8.62819 49.8796 16.5706 51.5193 24.8974 56.9765C33.2241 51.5193 41.1665 49.8796 44.8303 53.5433C48.494 57.2071 46.8543 65.1495 41.3971 73.4763C46.8543 81.803 48.494 89.7454 44.8303 93.4092C41.1665 97.073 33.2241 95.4332 24.8974 89.976C16.5706 95.4332 8.62819 97.073 4.96442 93.4092C1.30066 89.7454 2.94039 81.803 8.3976 73.4763C2.94039 65.1495 1.30066 57.2071 4.96442 53.5433ZM33.9671 64.4065C35.53 65.995 36.9647 67.6091 38.297 69.2232C41.8327 63.766 43.1137 59.0774 41.1921 57.1815C39.2962 55.2599 34.6076 56.541 29.1504 60.0766C30.7645 61.4089 32.3786 62.8437 33.9671 64.4065ZM15.8276 82.546C14.2648 80.9575 12.83 79.3434 11.4977 77.7293C7.96205 83.1865 6.68101 87.8751 8.60257 89.7711C10.4985 91.6926 15.1871 90.4116 20.6443 86.8759C19.0302 85.5436 17.4161 84.1089 15.8276 82.546ZM8.60257 57.1815C6.68101 59.0774 7.96205 63.766 11.4977 69.2232C12.83 67.6091 14.2648 65.995 15.8276 64.4065C17.4161 62.8437 19.0302 61.4089 20.6443 60.0766C15.1871 56.541 10.4985 55.2599 8.60257 57.1815ZM19.4658 78.9079C21.2592 80.7013 23.1039 82.341 24.8974 83.8014C26.6908 82.341 28.5355 80.7013 30.329 78.9079C32.1224 77.1144 33.7621 75.2697 35.2225 73.4763C33.7621 71.6828 32.1224 69.8381 30.329 68.0447C28.5355 66.2512 26.6908 64.6115 24.8974 63.1511C23.1039 64.6115 21.2592 66.2512 19.4658 68.0447C17.6723 69.8381 16.0326 71.6828 14.5722 73.4763C16.0326 75.2697 17.6723 77.1144 19.4658 78.9079ZM41.1921 89.7711C43.1137 87.8751 41.8327 83.1865 38.297 77.7293C36.9647 79.3434 35.53 80.9575 33.9671 82.546C32.3786 84.1089 30.7645 85.5436 29.1504 86.8759C34.6076 90.4116 39.2962 91.6926 41.1921 89.7711Z"
    fill="currentColor" />
</svg>